<svg xmlns="http://www.w3.org/2000/svg" viewBox="0 0 512 512">
  <defs>
    <linearGradient id="bg" x1="0%" y1="0%" x2="100%" y2="100%">
      <stop offset="0%" stop-color="#0f0f1a"/>
      <stop offset="100%" stop-color="#1a1a2e"/>
    </linearGradient>
  </defs>
  <rect width="512" height="512" rx="96" fill="url(#bg)"/>
  <g transform="translate(256,240)">
    <path d="M-130,30 C-130,-20 -90,-40 -60,-40 C-50,-90 10,-100 50,-80 C70,-100 130,-90 140,-40 C170,-30 180,10 160,30 Z" fill="#c9a962" opacity="0.5"/>
    <path d="M-110,20 C-110,-25 -75,-45 -45,-45 C-35,-90 15,-95 50,-75 C70,-95 120,-85 130,-40 C155,-30 165,5 145,25 Z" fill="#c9a962" opacity="0.85"/>
    <path d="M-80,15 C-80,-20 -55,-38 -30,-38 C-22,-70 15,-75 42,-60 C58,-75 95,-68 105,-35 C125,-28 132,0 118,18 Z" fill="#c9a962"/>
  </g>
  <circle cx="190" cy="345" r="5" fill="#c9a962" opacity="0.7"/>
  <circle cx="256" cy="365" r="5" fill="#c9a962" opacity="0.7"/>
  <circle cx="322" cy="345" r="5" fill="#c9a962" opacity="0.7"/>
  <line x1="190" y1="345" x2="256" y2="365" stroke="#c9a962" stroke-width="1.5" opacity="0.35"/>
  <line x1="256" y1="365" x2="322" y2="345" stroke="#c9a962" stroke-width="1.5" opacity="0.35"/>
  <line x1="190" y1="345" x2="322" y2="345" stroke="#c9a962" stroke-width="1.5" opacity="0.35"/>
</svg>
